<?xml version="1.0" encoding="UTF-8"?>
<svg xmlns="http://www.w3.org/2000/svg" viewBox="0 0 1200 630" width="1200" height="630">
  <defs>
    <linearGradient id="g51250" x1="71.13091308703497%" y1="4.684610648167499%" x2="28.869086912965034%" y2="95.3153893518325%">
      <stop offset="0%" stop-color="#1E40AF"/>
      <stop offset="100%" stop-color="#1E3A8A"/>
    </linearGradient>
  </defs>
  <rect width="1200" height="630" fill="url(#g51250)"/>
  <polygon points="348.9061821438372,235.12383751571178 418.9061821438372,195.12383751571178 488.9061821438372,235.12383751571178 418.9061821438372,275.1238375157118" fill="rgba(255,255,255,0.08)" stroke="rgba(255,255,255,0.15)" stroke-width="2"/><line x1="478.9061821438372" y1="240.12383751571178" x2="478.9061821438372" y2="295.1238375157118" stroke="rgba(255,255,255,0.12)" stroke-width="2"/><path d="M 843.4264025185257 361.9139719149098 C 813.4264025185257 351.9139719149098 763.4264025185257 356.9139719149098 753.4264025185257 291.9139719149098 L 843.4264025185257 301.9139719149098 L 933.4264025185257 291.9139719149098 C 923.4264025185257 356.9139719149098 873.4264025185257 351.9139719149098 843.4264025185257 361.9139719149098 Z" fill="rgba(255,255,255,0.06)" stroke="rgba(255,255,255,0.12)" stroke-width="1.5"/><line x1="843.4264025185257" y1="361.9139719149098" x2="843.4264025185257" y2="301.9139719149098" stroke="rgba(255,255,255,0.12)" stroke-width="1.5"/><rect x="188.33915395662189" y="382.45140086859465" width="8" height="100" rx="1" fill="rgba(255,255,255,0.1)" transform="rotate(34.920799508690834 188.33915395662189 382.45140086859465)"/><circle cx="909.2161149485037" cy="180.99661802873015" r="30" fill="none" stroke="rgba(255,255,255,0.12)" stroke-width="2"/><line x1="899.2161149485037" y1="210.99661802873015" x2="919.2161149485037" y2="210.99661802873015" stroke="rgba(255,255,255,0.1)" stroke-width="2"/><line x1="901.2161149485037" y1="217.99661802873015" x2="917.2161149485037" y2="217.99661802873015" stroke="rgba(255,255,255,0.1)" stroke-width="2"/><circle cx="688.5402576066554" cy="264.1937251552008" r="2.335478251799941" fill="rgba(255,255,255,0.09337391871958972)"/><circle cx="594.8850806569681" cy="419.3711188901216" r="5.827377624809742" fill="rgba(255,255,255,0.04573271583765745)"/><circle cx="894.0387582639232" cy="502.34900310169905" r="4.0907459342852235" fill="rgba(255,255,255,0.06363205652683973)"/><circle cx="980.772711453028" cy="357.0979441376403" r="2.87460361700505" fill="rgba(255,255,255,0.11216285085305572)"/><circle cx="438.12863111961633" cy="157.1457804692909" r="3.6768594216555357" fill="rgba(255,255,255,0.07176690733060241)"/><circle cx="233.82392870262265" cy="355.3263674560003" r="4.664877742528915" fill="rgba(255,255,255,0.05547305652871728)"/><circle cx="509.70741470810026" cy="369.4925521267578" r="3.723620885051787" fill="rgba(255,255,255,0.10381389066576957)"/><circle cx="669.4789802888408" cy="176.35373644297943" r="2.56313684117049" fill="rgba(255,255,255,0.10110809622332453)"/><circle cx="954.0962592698634" cy="116.88474714756012" r="2.805558731779456" fill="rgba(255,255,255,0.0847508679330349)"/><circle cx="987.6429767813534" cy="276.6657664254308" r="5.005778276361525" fill="rgba(255,255,255,0.11922814818099142)"/><circle cx="414.22070204280317" cy="216.896418845281" r="4.042124408297241" fill="rgba(255,255,255,0.09790025433525443)"/><circle cx="229.15893455501646" cy="318.8604591903277" r="4.490749350748956" fill="rgba(255,255,255,0.07155195496976376)"/><circle cx="879.5598530676216" cy="168.3943860908039" r="4.3357896246016026" fill="rgba(255,255,255,0.04433996858075261)"/><circle cx="896.5466180583462" cy="352.22353478195146" r="4.972587924450636" fill="rgba(255,255,255,0.09060452586039901)"/><circle cx="820.6234368029982" cy="433.6610631435178" r="2.8361400235444307" fill="rgba(255,255,255,0.11137358862906693)"/>
  <circle cx="677.227636333555" cy="330.04768716869876" r="1.0445709535852075" fill="rgba(255,255,255,0.05410889443708584)"/><circle cx="85.06337245926261" cy="22.069650816265494" r="2.673559858929366" fill="rgba(255,255,255,0.030645807955879716)"/><circle cx="875.6158587522805" cy="611.691251930315" r="1.464069507084787" fill="rgba(255,255,255,0.06533897773595526)"/><circle cx="444.75288335233927" cy="196.73980126390234" r="2.043613106943667" fill="rgba(255,255,255,0.045232079802080986)"/><circle cx="911.6408307105303" cy="419.26038263132796" r="1.3382509723305702" fill="rgba(255,255,255,0.058105017298366875)"/><circle cx="905.4218508303165" cy="342.16201435541734" r="2.0700740362517536" fill="rgba(255,255,255,0.043321877468843015)"/><circle cx="786.9954203255475" cy="574.5227641565725" r="2.5420385939069092" fill="rgba(255,255,255,0.06731288042617961)"/><circle cx="458.47958782687783" cy="137.7286638901569" r="2.9717464093118906" fill="rgba(255,255,255,0.04998856510035694)"/><circle cx="954.1390330530703" cy="20.78205830650404" r="1.1450218185782433" fill="rgba(255,255,255,0.04544883961323649)"/><circle cx="527.1272423677146" cy="282.540884334594" r="1.7992832022719085" fill="rgba(255,255,255,0.05207477230113)"/><circle cx="621.055655926466" cy="419.92014257702976" r="2.3384846742264926" fill="rgba(255,255,255,0.05510122638195753)"/><circle cx="1061.184582207352" cy="220.54439786821604" r="2.564712487626821" fill="rgba(255,255,255,0.030898558867629617)"/><circle cx="543.9410017803311" cy="271.36768515687436" r="2.190530611667782" fill="rgba(255,255,255,0.044876328757964074)"/><circle cx="231.30996152758598" cy="67.12299743900076" r="2.8127066465094686" fill="rgba(255,255,255,0.06923154624644667)"/><circle cx="216.9839515350759" cy="235.53274342557415" r="2.033209706656635" fill="rgba(255,255,255,0.04662416063481942)"/><circle cx="428.67882745340466" cy="618.6482414742932" r="1.505672024562955" fill="rgba(255,255,255,0.04577512174844742)"/><circle cx="830.9699133038521" cy="520.5056484066881" r="2.7546527683734894" fill="rgba(255,255,255,0.05336044638650492)"/><circle cx="205.1359978504479" cy="498.5902953729965" r="1.5415856787003577" fill="rgba(255,255,255,0.06997640061425045)"/><circle cx="941.1993121728301" cy="280.10448093758896" r="2.650838423985988" fill="rgba(255,255,255,0.05234667594311759)"/><circle cx="133.0979185178876" cy="277.09573541767895" r="1.8455642266198993" fill="rgba(255,255,255,0.04308739377418533)"/>
  <text x="600" y="335" font-family="system-ui, -apple-system, 'Segoe UI', sans-serif" font-size="68" font-weight="700" fill="rgba(0,0,0,0.15)" text-anchor="middle" letter-spacing="1">Tahsili</text>
  <text x="600" y="332" font-family="system-ui, -apple-system, 'Segoe UI', sans-serif" font-size="68" font-weight="700" fill="white" text-anchor="middle" letter-spacing="1">Tahsili</text>
  <g transform="translate(1140, 575)">
    <rect x="0" y="0" width="40" height="40" rx="8" fill="rgba(255,255,255,0.15)"/>
    <text x="20" y="29" font-family="sans-serif" font-weight="bold" font-size="24" fill="rgba(255,255,255,0.6)" text-anchor="middle">K</text>
  </g>
</svg>